<svg width="211" height="70" viewBox="0 0 211 70" fill="none" xmlns="http://www.w3.org/2000/svg">
<rect width="211" height="70" rx="35" fill="#9F3434"/>
<path d="M48 31V36" stroke="#F4F4F4" stroke-width="2" stroke-linecap="round"/>
<path d="M59 38.6C59 38.0399 59 37.7599 58.891 37.546C58.7951 37.3578 58.6422 37.2049 58.454 37.109C58.2401 37 57.9601 37 57.4 37H32.3221C32.0462 37 31.9082 37 31.7804 37.0344C31.6672 37.065 31.5602 37.1151 31.4643 37.1827C31.3562 37.259 31.268 37.3651 31.0916 37.5773L27.8501 41.4773C27.5476 41.8412 27.3964 42.0231 27.3385 42.2262C27.2876 42.4052 27.2876 42.5948 27.3385 42.7738C27.3964 42.9769 27.5476 43.1588 27.8501 43.5227L31.0916 47.4227C31.268 47.6349 31.3562 47.741 31.4643 47.8173C31.5602 47.8849 31.6672 47.935 31.7804 47.9656C31.9082 48 32.0462 48 32.3221 48H57.4C57.9601 48 58.2401 48 58.454 47.891C58.6422 47.7951 58.7951 47.6422 58.891 47.454C59 47.2401 59 46.9601 59 46.4V38.6Z" fill="#F4F4F4" stroke="#F4F4F4" stroke-width="2"/>
<path d="M36 20.6C36 20.0399 36 19.7599 36.109 19.546C36.2049 19.3578 36.3578 19.2049 36.546 19.109C36.7599 19 37.0399 19 37.6 19H62.6779C62.9538 19 63.0918 19 63.2196 19.0344C63.3328 19.065 63.4398 19.1151 63.5357 19.1827C63.6438 19.259 63.732 19.3651 63.9084 19.5773L67.1499 23.4773C67.4524 23.8412 67.6036 24.0231 67.6615 24.2262C67.7124 24.4052 67.7124 24.5948 67.6615 24.7738C67.6036 24.9769 67.4524 25.1588 67.1499 25.5227L63.9084 29.4227C63.732 29.6349 63.6438 29.741 63.5357 29.8173C63.4398 29.8849 63.3328 29.935 63.2196 29.9656C63.0918 30 62.9538 30 62.6779 30H37.6C37.0399 30 36.7599 30 36.546 29.891C36.3578 29.7951 36.2049 29.6422 36.109 29.454C36 29.2401 36 28.9601 36 28.4V20.6Z" fill="#F4F4F4" stroke="#F4F4F4" stroke-width="2"/>
<path d="M81.125 44V26.5455H88.6932C90.0227 26.5455 91.1392 26.7244 92.0426 27.0824C92.9517 27.4403 93.6364 27.946 94.0966 28.5994C94.5625 29.2528 94.7955 30.0227 94.7955 30.9091C94.7955 31.5511 94.6534 32.1364 94.3693 32.6648C94.0909 33.1932 93.6989 33.6364 93.1932 33.9943C92.6875 34.3466 92.0966 34.5909 91.4205 34.7273V34.8977C92.1705 34.9261 92.8523 35.1165 93.4659 35.4688C94.0795 35.8153 94.5682 36.2955 94.9318 36.9091C95.2955 37.517 95.4773 38.233 95.4773 39.0568C95.4773 40.0114 95.2273 40.8608 94.7273 41.6051C94.233 42.3494 93.5284 42.9347 92.6136 43.3608C91.6989 43.7869 90.608 44 89.3409 44H81.125ZM85.8636 40.2159H88.0795C88.875 40.2159 89.4716 40.0682 89.8693 39.7727C90.267 39.4716 90.4659 39.0284 90.4659 38.4432C90.4659 38.0341 90.3722 37.6875 90.1847 37.4034C89.9972 37.1193 89.7301 36.9034 89.3835 36.7557C89.0426 36.608 88.6307 36.5341 88.1477 36.5341H85.8636V40.2159ZM85.8636 33.6023H87.8068C88.2216 33.6023 88.5881 33.5369 88.9062 33.4062C89.2244 33.2756 89.4716 33.0881 89.6477 32.8438C89.8295 32.5938 89.9205 32.2898 89.9205 31.9318C89.9205 31.392 89.7273 30.9801 89.3409 30.696C88.9545 30.4062 88.4659 30.2614 87.875 30.2614H85.8636V33.6023ZM114.065 35.2727C114.065 37.2159 113.688 38.8551 112.932 40.1903C112.176 41.5199 111.156 42.5284 109.872 43.2159C108.588 43.8977 107.156 44.2386 105.577 44.2386C103.986 44.2386 102.548 43.8949 101.264 43.2074C99.9858 42.5142 98.9688 41.5028 98.2131 40.1733C97.4631 38.8381 97.0881 37.2045 97.0881 35.2727C97.0881 33.3295 97.4631 31.6932 98.2131 30.3636C98.9688 29.0284 99.9858 28.0199 101.264 27.3381C102.548 26.6506 103.986 26.3068 105.577 26.3068C107.156 26.3068 108.588 26.6506 109.872 27.3381C111.156 28.0199 112.176 29.0284 112.932 30.3636C113.688 31.6932 114.065 33.3295 114.065 35.2727ZM109.19 35.2727C109.19 34.2273 109.051 33.3466 108.773 32.6307C108.5 31.9091 108.094 31.3636 107.554 30.9943C107.02 30.6193 106.361 30.4318 105.577 30.4318C104.793 30.4318 104.131 30.6193 103.591 30.9943C103.057 31.3636 102.651 31.9091 102.372 32.6307C102.099 33.3466 101.963 34.2273 101.963 35.2727C101.963 36.3182 102.099 37.2017 102.372 37.9233C102.651 38.6392 103.057 39.1847 103.591 39.5597C104.131 39.929 104.793 40.1136 105.577 40.1136C106.361 40.1136 107.02 39.929 107.554 39.5597C108.094 39.1847 108.5 38.6392 108.773 37.9233C109.051 37.2017 109.19 36.3182 109.19 35.2727ZM125.667 32C125.621 31.4318 125.408 30.9886 125.028 30.6705C124.653 30.3523 124.082 30.1932 123.315 30.1932C122.826 30.1932 122.425 30.2528 122.113 30.3722C121.806 30.4858 121.579 30.642 121.431 30.8409C121.283 31.0398 121.207 31.267 121.201 31.5227C121.19 31.733 121.227 31.9233 121.312 32.0938C121.403 32.2585 121.545 32.4091 121.738 32.5455C121.931 32.6761 122.178 32.7955 122.479 32.9034C122.781 33.0114 123.138 33.108 123.553 33.1932L124.985 33.5C125.951 33.7045 126.778 33.9744 127.465 34.3097C128.153 34.6449 128.715 35.0398 129.153 35.4943C129.59 35.9432 129.911 36.4489 130.116 37.0114C130.326 37.5739 130.434 38.1875 130.44 38.8523C130.434 40 130.147 40.9716 129.579 41.767C129.011 42.5625 128.198 43.1676 127.141 43.5824C126.09 43.9972 124.826 44.2045 123.349 44.2045C121.832 44.2045 120.508 43.9801 119.377 43.5312C118.252 43.0824 117.377 42.392 116.752 41.4602C116.133 40.5227 115.82 39.3239 115.815 37.8636H120.315C120.343 38.3977 120.477 38.8466 120.715 39.2102C120.954 39.5739 121.289 39.8494 121.721 40.0369C122.158 40.2244 122.678 40.3182 123.281 40.3182C123.786 40.3182 124.21 40.2557 124.55 40.1307C124.891 40.0057 125.15 39.8324 125.326 39.6108C125.502 39.3892 125.593 39.1364 125.599 38.8523C125.593 38.5852 125.505 38.3523 125.335 38.1534C125.17 37.9489 124.897 37.767 124.516 37.608C124.136 37.4432 123.621 37.2898 122.974 37.1477L121.235 36.7727C119.69 36.4375 118.471 35.8778 117.579 35.0938C116.692 34.304 116.252 33.2273 116.258 31.8636C116.252 30.7557 116.548 29.7869 117.144 28.9574C117.746 28.1222 118.579 27.4716 119.641 27.0057C120.71 26.5398 121.934 26.3068 123.315 26.3068C124.724 26.3068 125.942 26.5426 126.971 27.0142C127.999 27.4858 128.792 28.1506 129.349 29.0085C129.911 29.8608 130.195 30.858 130.201 32H125.667ZM132.242 44V26.5455H139.776C141.072 26.5455 142.205 26.8011 143.177 27.3125C144.148 27.8239 144.904 28.5426 145.444 29.4688C145.984 30.3949 146.254 31.4773 146.254 32.7159C146.254 33.9659 145.975 35.0483 145.418 35.9631C144.867 36.8778 144.092 37.5824 143.092 38.0767C142.097 38.571 140.935 38.8182 139.606 38.8182H135.106V35.1364H138.651C139.208 35.1364 139.683 35.0398 140.075 34.8466C140.472 34.6477 140.776 34.3665 140.987 34.0028C141.202 33.6392 141.31 33.2102 141.31 32.7159C141.31 32.2159 141.202 31.7898 140.987 31.4375C140.776 31.0795 140.472 30.8068 140.075 30.6193C139.683 30.4261 139.208 30.3295 138.651 30.3295H136.981V44H132.242ZM152.731 26.5455V44H147.992V26.5455H152.731ZM154.977 44V26.5455H167.556V30.3636H159.715V33.3636H166.908V37.1818H159.715V40.1818H167.522V44H154.977ZM179.315 32C179.27 31.4318 179.057 30.9886 178.676 30.6705C178.301 30.3523 177.73 30.1932 176.963 30.1932C176.474 30.1932 176.074 30.2528 175.761 30.3722C175.455 30.4858 175.227 30.642 175.08 30.8409C174.932 31.0398 174.855 31.267 174.849 31.5227C174.838 31.733 174.875 31.9233 174.96 32.0938C175.051 32.2585 175.193 32.4091 175.386 32.5455C175.58 32.6761 175.827 32.7955 176.128 32.9034C176.429 33.0114 176.787 33.108 177.202 33.1932L178.634 33.5C179.599 33.7045 180.426 33.9744 181.114 34.3097C181.801 34.6449 182.364 35.0398 182.801 35.4943C183.239 35.9432 183.56 36.4489 183.764 37.0114C183.974 37.5739 184.082 38.1875 184.088 38.8523C184.082 40 183.795 40.9716 183.227 41.767C182.659 42.5625 181.847 43.1676 180.79 43.5824C179.739 43.9972 178.474 44.2045 176.997 44.2045C175.48 44.2045 174.156 43.9801 173.026 43.5312C171.901 43.0824 171.026 42.392 170.401 41.4602C169.781 40.5227 169.469 39.3239 169.463 37.8636H173.963C173.991 38.3977 174.125 38.8466 174.364 39.2102C174.602 39.5739 174.938 39.8494 175.369 40.0369C175.807 40.2244 176.327 40.3182 176.929 40.3182C177.435 40.3182 177.858 40.2557 178.199 40.1307C178.54 40.0057 178.798 39.8324 178.974 39.6108C179.151 39.3892 179.241 39.1364 179.247 38.8523C179.241 38.5852 179.153 38.3523 178.983 38.1534C178.818 37.9489 178.545 37.767 178.165 37.608C177.784 37.4432 177.27 37.2898 176.622 37.1477L174.884 36.7727C173.338 36.4375 172.119 35.8778 171.227 35.0938C170.341 34.304 169.901 33.2273 169.906 31.8636C169.901 30.7557 170.196 29.7869 170.793 28.9574C171.395 28.1222 172.227 27.4716 173.29 27.0057C174.358 26.5398 175.582 26.3068 176.963 26.3068C178.372 26.3068 179.591 26.5426 180.619 27.0142C181.648 27.4858 182.44 28.1506 182.997 29.0085C183.56 29.8608 183.844 30.858 183.849 32H179.315Z" fill="#F4F4F4"/>
</svg>
